<?xml version="1.0" encoding="UTF-8"?>
<svg xmlns="http://www.w3.org/2000/svg" width="1400" height="720" viewBox="0 0 1400 720">
  <style>
    .title { font: 700 29px Arial, sans-serif; fill: #1c2b41; }
    .caption { font: 16px Arial, sans-serif; fill: #60708a; }
    .axis { font: 14px Arial, sans-serif; fill: #60708a; }
    .detail { font: 14px Arial, sans-serif; fill: #60708a; }
    .callout { font: 16px Arial, sans-serif; fill: #1c2b41; }
  </style>
  <rect width="100%" height="100%" fill="#ffffff"/>
  <text x="52" y="48" class="title">CONSUMPTION - Giảm nhiên liệu theo xu hướng</text>
  <text x="54" y="80" class="caption">Nhiên liệu giảm từ từ và duy trì cùng chiều theo thời gian.</text>
  <line x1="120" y1="112" x2="1330" y2="112" stroke="#dfe7ef" stroke-width="1"/><text x="38" y="118" class="axis">127.7</text>
<line x1="120" y1="212" x2="1330" y2="212" stroke="#dfe7ef" stroke-width="1"/><text x="38" y="218" class="axis">127.0</text>
<line x1="120" y1="312" x2="1330" y2="312" stroke="#dfe7ef" stroke-width="1"/><text x="38" y="318" class="axis">126.4</text>
<line x1="120" y1="412" x2="1330" y2="412" stroke="#dfe7ef" stroke-width="1"/><text x="38" y="418" class="axis">125.7</text>
<line x1="120" y1="512" x2="1330" y2="512" stroke="#dfe7ef" stroke-width="1"/><text x="38" y="518" class="axis">125.1</text>
<line x1="120" y1="612" x2="1330" y2="612" stroke="#dfe7ef" stroke-width="1"/><text x="38" y="618" class="axis">124.4</text>
  <polyline fill="none" stroke="#e22c2c" stroke-width="3" points="120.0,187.8 163.2,187.8 206.4,202.9 249.6,202.9 292.9,202.9 336.1,202.9 379.3,202.9 422.5,202.9 465.7,202.9 508.9,202.9 552.1,202.9 595.4,202.9 638.6,202.9 681.8,187.8 725.0,278.7 768.2,278.7 811.4,339.3 854.6,354.4 897.9,415.0 941.1,490.8 984.3,490.8 1027.5,490.8 1070.7,536.2 1113.9,369.6 1157.1,339.3 1200.4,354.4 1243.6,354.4 1286.8,369.6 1330.0,369.6"/>
  <circle cx="120.0" cy="187.8" r="3.1" fill="#e22c2c"/><circle cx="163.2" cy="187.8" r="3.1" fill="#e22c2c"/><circle cx="206.4" cy="202.9" r="3.1" fill="#e22c2c"/><circle cx="249.6" cy="202.9" r="3.1" fill="#e22c2c"/><circle cx="292.9" cy="202.9" r="3.1" fill="#e22c2c"/><circle cx="336.1" cy="202.9" r="3.1" fill="#e22c2c"/><circle cx="379.3" cy="202.9" r="3.1" fill="#e22c2c"/><circle cx="422.5" cy="202.9" r="3.1" fill="#e22c2c"/><circle cx="465.7" cy="202.9" r="3.1" fill="#e22c2c"/><circle cx="508.9" cy="202.9" r="3.1" fill="#e22c2c"/><circle cx="552.1" cy="202.9" r="3.1" fill="#e22c2c"/><circle cx="595.4" cy="202.9" r="3.1" fill="#e22c2c"/><circle cx="638.6" cy="202.9" r="3.1" fill="#e22c2c"/><circle cx="681.8" cy="187.8" r="3.1" fill="#e22c2c"/><circle cx="725.0" cy="278.7" r="3.1" fill="#e22c2c"/><circle cx="768.2" cy="278.7" r="3.1" fill="#e22c2c"/><circle cx="811.4" cy="339.3" r="3.1" fill="#e22c2c"/><circle cx="854.6" cy="354.4" r="3.1" fill="#e22c2c"/><circle cx="897.9" cy="415.0" r="3.1" fill="#e22c2c"/><circle cx="941.1" cy="490.8" r="3.1" fill="#e22c2c"/><circle cx="984.3" cy="490.8" r="3.1" fill="#e22c2c"/><circle cx="1027.5" cy="490.8" r="3.1" fill="#e22c2c"/><circle cx="1070.7" cy="536.2" r="3.1" fill="#e22c2c"/><circle cx="1113.9" cy="369.6" r="3.1" fill="#e22c2c"/><circle cx="1157.1" cy="339.3" r="3.1" fill="#e22c2c"/><circle cx="1200.4" cy="354.4" r="3.1" fill="#e22c2c"/><circle cx="1243.6" cy="354.4" r="3.1" fill="#e22c2c"/><circle cx="1286.8" cy="369.6" r="3.1" fill="#e22c2c"/><circle cx="1330.0" cy="369.6" r="3.1" fill="#e22c2c"/>
  <circle cx="725" cy="278.6666666666681" r="10" fill="#2972b5" stroke="#414141" stroke-width="2"/>
  <text x="742" y="261.6666666666681" class="callout">Diem mau</text>
  <text x="120" y="692" class="detail">Xe: 29E-51878 | 2026-08-15 12:12:00 | Fuel: 126.6 L</text>
  <text x="52" y="662" class="axis">Muc nhien lieu (L)</text>
</svg>